<svg width="223" height="242" viewBox="0 0 223 242" fill="none" xmlns="http://www.w3.org/2000/svg">
<g clip-path="url(#clip0_0_5)">
<path d="M223 144.395C222.345 149.427 221.941 154.508 220.981 159.484C218.637 171.569 212.757 181.97 205.573 191.812C193.378 208.517 178.203 221.585 159.528 230.364C140.363 239.371 120.201 243.327 99.0112 241.601C88.2051 240.722 77.7417 238.443 67.7372 234.228C55.1994 228.945 45.1765 220.915 39.6755 208.013C35.3433 197.851 35.6003 187.53 38.5068 177.104C40.832 168.761 45.7884 162.138 52.2133 156.566C53.5167 155.435 53.4861 154.741 52.6539 153.316C46.2657 142.38 42.2271 130.719 42.2271 117.879C42.2271 116.423 42.527 114.973 42.5882 113.511C42.6065 113.019 42.4658 112.288 42.1354 112.086C41.8478 111.907 40.9238 112.153 40.7525 112.473C39.8163 114.205 38.6047 115.938 38.2682 117.818C37.2279 123.599 38.7271 129.214 40.3486 134.676C42.0313 140.334 44.2586 145.833 46.2473 151.399C46.4431 151.958 46.5961 152.536 46.8531 153.383H20.0642C20.0642 152.683 20.0642 151.878 20.0642 151.073C20.0642 140.193 20.0642 129.312 20.0642 118.432C20.0642 108.27 26.4891 102.047 36.561 102.704C39.8469 102.919 43.0899 103.761 46.4309 104.326C48.0708 102.508 49.7902 100.32 51.8033 98.4343C55.3768 95.0921 59.9171 93.8265 64.6226 93.6299C68.6856 93.464 72.7731 93.9432 76.8544 94.1706C78.9532 94.2873 79.6386 95.5529 79.6508 97.5312C79.6875 103.036 79.7304 108.547 79.9262 114.052C80.2627 123.531 85.935 129.97 95.2481 131.543C97.1633 131.868 99.0969 132.065 101.037 132.218C102.444 132.329 103.539 132.79 103.68 134.32C103.839 136.034 102.377 135.917 101.367 135.997C87.9053 137.09 75.857 130.861 74.774 114.543C74.4558 109.751 74.3701 104.934 74.3457 100.124C74.3334 98.4834 73.9479 97.7892 72.2101 97.6725C64.9347 97.2055 58.2527 98.25 53.0271 104.068C49.0437 108.504 47.6057 113.843 47.8382 119.519C48.2849 130.492 51.1976 140.795 57.1758 150.133C58.2099 151.749 58.9748 152.161 60.9451 151.239C75.8754 144.285 90.7323 144.045 104.726 153.414C114.241 159.785 119.406 169.339 120.666 180.68C121.266 186.099 120.66 191.646 120.648 197.139C120.648 199.129 119.547 200.088 117.778 200.241C112.332 200.714 106.862 201.55 101.434 201.347C96.6432 201.169 91.8949 199.781 87.1221 198.945C85.782 198.712 85.2068 198.017 85.4577 196.635C85.5434 196.162 85.6168 195.603 85.4455 195.185C85.0294 194.165 84.7051 192.801 83.9035 192.334C83.2059 191.929 81.4926 192.199 80.9786 192.808C80.2443 193.674 79.5774 195.437 79.9874 196.254C80.8562 197.968 82.2147 199.652 83.7872 200.745C88.97 204.345 95.0278 205.046 101.11 205.015C126.027 204.886 147.786 196.875 165.402 178.702C171.093 172.834 174.936 165.738 178.852 158.661C184.793 147.916 186.916 136.181 187.963 124.17C188.489 118.137 188.685 112.067 188.942 106.016C189.003 104.633 189.34 103.982 190.839 104C193.751 104.025 196.67 103.853 199.583 103.896C200.06 103.902 200.923 104.56 200.935 104.94C201.253 113.615 204.931 121.406 207.189 129.577C210.952 143.197 210.634 156.707 205.708 170.033C205.481 170.647 205.322 171.286 204.98 172.441C207.262 171.821 207.941 170.365 208.308 168.909C209.422 164.448 210.67 159.994 211.325 155.46C213.314 141.741 215.039 127.979 216.912 114.242C217.089 112.94 216.759 111.213 219.139 111.305C221.562 111.397 222.205 111.797 222.327 114.322C222.56 119.188 222.774 124.047 222.994 128.913V144.395H223ZM190.918 152.192C190.906 150.035 189.743 148.954 187.492 149.003C185.619 149.04 184.23 150.453 184.249 152.29C184.267 154.065 185.754 155.546 187.553 155.583C189.438 155.626 190.924 154.121 190.912 152.192H190.918ZM193.286 153.015C193.286 155.3 194.155 156.197 196.358 156.173C198.487 156.154 199.362 155.288 199.387 153.175C199.411 151.147 198.212 149.746 196.401 149.685C194.608 149.624 193.292 151.03 193.292 153.015H193.286Z" fill="white"/>
<path d="M0 171.182C0.501756 170.463 1.10142 169.787 1.49915 169.007C4.17926 163.754 6.81042 158.477 9.68634 152.769C14.0981 159.361 18.3019 165.646 22.7932 172.355H15.7686C17.1943 174.978 18.1428 177.19 19.4951 179.113C22.9768 184.053 27.5476 187.911 32.296 191.573C32.9507 192.076 33.6666 193.096 33.6299 193.84C33.1159 204.13 37.1422 212.695 43.4509 220.417C44.2218 221.363 45.0234 222.279 45.8984 223.305C42.2638 224.067 27.6761 212.842 19.5868 203.35C12.9967 195.615 9.63127 187.917 6.29031 172.853H0C0 172.294 0 171.735 0 171.182Z" fill="white"/>
<path d="M162.336 176.133C162.226 175.765 162.183 175.697 162.19 175.636C162.734 170.5 160.109 166.838 157.044 163.041C142.04 144.475 127.213 125.761 112.455 106.998C110.864 104.977 109.45 104.873 107.137 105.825C111.794 111.852 116.365 117.768 121.131 123.937C116.897 127.494 112.73 130.99 108.899 134.203C105.332 130.836 101.905 127.697 98.6073 124.434C96.8817 122.726 95.2663 120.877 93.7978 118.948C90.0835 114.051 90.6465 110.457 95.6457 106.98C97.3345 105.807 99.1763 104.86 101.147 103.693C98.8337 102.483 97.977 100.535 97.3345 98.3236C97.0592 97.3713 96.074 96.6279 95.2051 95.5221C96.9123 92.7881 98.7725 89.8084 100.412 87.1789C102.432 87.1789 104.09 87.3448 105.705 87.1421C109.144 86.7182 111.873 87.9223 113.96 90.5518C116.095 93.2428 117.013 96.3699 115.251 99.5032C114.021 101.696 114.59 102.999 116.022 104.744C130.45 122.253 144.799 139.83 159.179 157.377C159.589 157.881 160.115 158.292 161.015 159.158C161.137 157.727 161.29 156.873 161.272 156.019C161.174 152.327 160.978 148.64 160.917 144.948C160.898 143.83 160.623 143.197 159.509 142.767C156.511 141.606 155.055 139.376 155.275 136.089C155.349 134.977 155.202 133.846 155.336 132.747C155.404 132.194 155.887 131.69 156.181 131.168C156.768 131.518 157.502 131.751 157.912 132.249C158.377 132.814 158.481 133.674 158.898 134.301C159.155 134.694 159.675 135.057 160.127 135.124C160.354 135.155 160.745 134.535 160.947 134.147C161.174 133.724 161.162 133.152 161.443 132.784C161.896 132.194 162.434 131.475 163.077 131.291C163.426 131.192 164.105 132.04 164.539 132.544C164.937 133.005 165.206 133.582 165.836 134.608C166.185 133.429 166.246 132.796 166.552 132.329C166.809 131.942 167.348 131.561 167.788 131.524C168.235 131.487 168.81 131.776 169.153 132.102C169.642 132.569 169.967 133.207 170.358 133.773C170.774 133.103 171.191 132.433 171.723 131.579C173.571 130.738 174.06 132.292 174.421 134.055C174.599 133.982 174.782 133.902 174.96 133.828C175.156 133.244 175.235 132.581 175.578 132.102C175.841 131.733 176.447 131.371 176.857 131.414C177.206 131.45 177.762 132.065 177.768 132.427C177.854 139.118 177.97 145.814 177.824 152.505C177.793 153.93 176.826 155.38 176.141 156.738C172.671 163.619 168.253 169.855 163.083 175.55C162.912 175.734 162.679 175.857 162.312 176.133H162.336Z" fill="white"/>
<path d="M156.487 113.431C151.8 113.431 147.308 113.413 142.817 113.431C137.616 113.462 132.415 113.505 127.214 113.597C125.586 113.628 124.589 113.044 124.79 111.324C126.565 96.3884 130.114 82.0736 140.602 70.6218C145.154 65.6515 150.68 61.8977 157.484 60.5093C158.004 60.4048 158.543 60.4048 159.479 60.325C159.479 66.5301 159.442 72.5755 159.497 78.6147C159.522 81.3425 159.136 83.7754 157.796 86.3435C156.499 88.8132 155.985 91.9281 155.93 94.7788C155.826 100.406 156.273 106.046 156.493 111.68C156.511 112.092 156.493 112.497 156.493 113.437L156.487 113.431Z" fill="white"/>
<path d="M122.624 153.85H126.045C126.247 154.698 126.418 155.448 126.596 156.197L127.189 156.246C127.373 155.527 127.556 154.809 127.74 154.071C130.463 153.377 130.585 153.488 130.775 156.265C130.812 156.775 131.203 157.254 131.436 157.751C131.711 157.278 132.115 156.836 132.225 156.326C132.36 155.669 132.256 154.968 132.256 154.342C135.321 153.494 135.45 153.598 135.805 156.916C136.849 157.149 137.614 156.14 138.099 153.887H140.62C140.694 154.311 140.724 154.71 140.841 155.085C141.061 155.792 141.33 156.48 141.575 157.174C142.003 156.621 142.627 156.123 142.829 155.497C143.245 154.17 144.022 153.949 145.191 154.305C145.191 157.948 145.307 161.548 145.112 165.13C145.063 166.076 144.261 167.287 143.447 167.833C141.746 168.976 142.101 169.99 143.129 171.249C146.348 175.181 149.548 179.119 152.754 183.064C153.054 183.432 153.317 183.831 153.678 184.317C149.089 188.021 144.2 191.007 138.803 193.115C138.277 193.323 137.2 193.059 136.845 192.629C131.791 186.522 126.773 180.391 121.866 174.167C120.905 172.945 120.287 171.372 119.791 169.873C119.1 167.772 119.534 165.935 121.511 164.553C122.067 164.166 122.539 163.25 122.563 162.562C122.679 159.717 122.612 156.867 122.612 153.85H122.624Z" fill="white"/>
<path d="M44.4789 18.001C55.5297 31.0379 66.4399 43.8967 77.4846 56.9274C78.7941 55.3178 79.92 53.9293 81.0581 52.5408C83.8178 49.1802 88.2112 48.7502 91.6011 51.5026C94.9176 54.1935 95.3276 58.15 92.6474 61.6519C89.5206 65.7375 86.3571 69.7985 83.2793 73.927C82.4104 75.0943 81.7128 75.4445 80.4278 74.4615C77.503 72.2252 74.4924 70.0995 71.5003 67.9554C70.2887 67.083 70.2459 66.2904 71.1331 65.0248C74.1069 60.7918 74.0763 60.7304 70.7966 56.737C61.3611 45.2299 51.9012 33.7412 42.4535 22.2402C42.1536 21.8715 41.8844 21.4783 41.4438 20.8886C42.4106 19.967 43.3407 19.0762 44.4727 17.9949L44.4789 18.001Z" fill="white"/>
<path d="M135.676 73.0977C135.34 73.6014 135.076 74.0806 134.728 74.4861C131.013 78.7744 128.615 83.7324 127.128 89.188C126.926 89.9375 126.216 91.0372 125.672 91.0802C124.894 91.1417 123.805 90.5765 123.285 89.9314C117.558 82.8477 111.934 75.6841 106.232 68.582C105.357 67.4885 105.503 66.8741 106.562 66.057C110.796 62.7885 114.994 59.4771 119.161 56.1226C120.501 55.0413 121.505 54.9799 122.643 56.436C126.577 61.4799 130.585 66.4686 134.55 71.4819C134.93 71.9611 135.254 72.4956 135.676 73.1038V73.0977Z" fill="white"/>
<path d="M162.184 81.281V48.6826C162.318 48.6212 162.459 48.5659 162.594 48.5044C164.466 51.3183 166.338 54.1382 168.468 57.3391C169.63 53.6099 170.628 50.4028 171.784 46.6859C173.234 49.5489 174.642 51.9265 175.664 54.4515C176.563 56.6817 177.873 58.0026 180.29 58.2791C181.305 58.3958 182.278 58.8504 183.569 59.2375C183.337 60.5276 183.123 61.7933 182.878 63.0589C182.003 67.642 181.159 72.2314 180.192 76.7961C180.051 77.4658 179.409 78.4611 178.87 78.5594C173.412 79.5424 167.929 80.3656 162.184 81.281Z" fill="white"/>
<path d="M94.1404 42.3362C97.9219 37.5196 101.563 32.9487 105.112 28.3102C106.152 26.9524 107.235 26.8787 108.52 27.7081C112.901 30.528 117.252 33.391 121.633 36.2048C122.74 36.9175 122.869 37.6609 122.184 38.8097C119.852 42.7048 119.889 42.7048 115.893 40.5853C114.908 40.063 113.739 38.9879 112.791 40.4132C111.83 41.8509 112.852 42.8461 113.996 43.694C116.799 45.7542 117.405 48.3509 115.814 51.4842C114.358 54.3348 112.883 57.1732 111.371 59.9993C110.472 61.6766 109.664 61.8302 108.52 60.6506C108.281 60.4048 108.098 60.0976 107.878 59.8273C103.325 54.0399 98.7786 48.2464 94.1343 42.3424L94.1404 42.3362Z" fill="white"/>
<path d="M178.637 83.333C177.04 91.4857 175.504 99.325 173.962 107.164C173.92 107.367 173.858 107.57 173.822 107.773C173.23 110.988 171.337 112.593 168.143 112.589C162.428 112.589 162.477 112.583 162.275 106.851C162.043 100.253 161.78 93.6483 161.394 87.0561C161.302 85.5079 161.761 85.0287 163.217 84.7645C167.427 83.9965 171.545 82.6019 175.914 83.0996C176.728 83.1917 177.548 83.2347 178.637 83.3269V83.333Z" fill="white"/>
<path d="M116.603 30.2392C115.098 28.3224 113.746 26.5899 112.375 24.8696C110.564 22.5965 108.208 21.7671 105.363 22.1787C103.38 22.4674 101.385 22.9098 99.3967 22.9098C94.9849 22.9098 91.5461 19.6475 91.1606 15.3776C90.7078 10.3459 93.0146 7.20037 97.8853 6.21738C105.289 4.72446 112.185 8.85302 114.058 16.1702C115.159 20.4707 115.814 24.8881 116.658 29.2562C116.707 29.4958 116.634 29.7539 116.609 30.2392H116.603Z" fill="white"/>
<path d="M75.9243 88.4384C77.246 86.6998 78.3597 85.1454 79.5651 83.6648C80.8256 82.1104 81.9331 79.7697 83.5302 79.3335C85.1211 78.9034 87.2322 80.4148 89.1168 81.0721C89.8756 81.3363 90.6343 81.5882 91.5828 81.4961C89.6859 79.4256 87.7951 77.3491 85.7942 75.1619C86.8222 74.1851 87.7156 73.3372 88.7925 72.3174C92.0539 75.8684 95.2848 79.2843 98.3626 82.8354C98.7665 83.3023 98.6624 84.6293 98.3014 85.2929C96.5269 88.5183 94.6239 91.6823 92.6597 94.7971C92.366 95.2641 91.3135 95.7494 90.9158 95.5713C86.0084 93.3288 81.1622 90.9573 75.9304 88.4507L75.9243 88.4384Z" fill="white"/>
<path d="M124.111 127.187C126.082 129.779 127.978 132.083 129.649 134.547C131.136 136.74 131.197 139.118 129.716 141.409C127.648 144.61 124.735 146.797 121.29 148.266C120.746 148.499 119.669 148.358 119.302 147.959C116.401 144.795 113.611 141.526 110.601 138.067C115.104 134.436 119.51 130.891 124.111 127.181V127.187Z" fill="white"/>
<path d="M79.3508 77.9819C76.9705 81.3179 74.7983 84.445 72.522 87.4923C72.1855 87.9469 71.3778 88.2296 70.7659 88.2664C67.0884 88.4999 64.2981 86.9578 62.5909 83.6894C60.9755 80.5991 61.1101 77.5088 63.2212 74.6704C64.6163 72.7966 66.1522 71.0334 67.7554 69.0674C71.7266 72.1147 75.4347 74.9653 79.3631 77.9819H79.3508Z" fill="white"/>
<path d="M82.5082 96.161C86.4121 95.1842 87.3055 95.8354 87.4218 99.4971C87.587 104.645 87.7705 109.8 87.9052 114.948C88.0031 118.487 89.4043 121.258 92.476 123.107C93.9018 123.967 95.3764 124.76 96.7104 125.743C97.2488 126.136 97.9097 127.389 97.7873 127.506C97.1142 128.17 96.1168 129.165 95.407 129.036C90.7566 128.207 84.3745 124.735 83.1691 118.309C81.7739 110.912 82.0432 103.521 82.5021 96.161H82.5082Z" fill="white"/>
<path d="M119.075 29.4283C118.671 25.4103 118.414 21.5398 117.864 17.7122C117.258 13.4731 115.41 9.94661 111.482 7.74717C109.756 6.78261 108.936 5.19139 109.444 3.15783C109.915 1.28401 111.696 0.0552671 113.844 -2.60766e-05C117.044 -0.0798941 119.198 1.64648 120.795 4.18997C124.845 10.647 123.989 23.3829 119.069 29.4283H119.075Z" fill="white"/>
<path d="M215.571 109.425C215.217 113.984 214.972 118.61 214.464 123.206C214.133 126.161 213.528 129.104 212.806 131.991C212.536 133.06 211.576 133.951 210.927 134.922C210.719 134.854 210.517 134.786 210.309 134.719C209.838 132.87 209.379 131.014 208.883 129.171C208.541 127.899 208.345 126.529 207.727 125.405C206.148 122.53 206.216 119.747 207.556 116.835C208.131 115.581 208.449 114.205 208.883 112.89C210.248 108.786 210.756 108.504 215.578 109.419L215.571 109.425Z" fill="white"/>
<path d="M117.674 150.183C115.159 151.983 112.92 153.592 110.864 155.067C107.027 152.271 103.319 149.562 99.5557 146.822C102.401 144.58 105.491 142.14 108.783 139.548C111.745 143.093 114.614 146.527 117.674 150.183Z" fill="white"/>
<path d="M103.9 64.2753C103.417 63.8575 103.007 63.6057 102.731 63.2555C99.574 59.1883 96.4656 55.0844 93.2837 51.0357C92.4148 49.9359 92.8676 49.1127 93.7671 48.6519C94.275 48.3877 95.4192 48.529 95.768 48.9284C99.1579 52.7989 102.462 56.7493 105.736 60.7243C106.072 61.1297 106.36 62.0636 106.146 62.3523C105.589 63.0896 104.732 63.5995 103.9 64.2815V64.2753Z" fill="white"/>
</g>
<defs>
<clipPath id="clip0_0_5">
<rect width="223" height="242" fill="white"/>
</clipPath>
</defs>
</svg>
