<svg width="101" height="98" viewBox="0 0 101 98" fill="none" xmlns="http://www.w3.org/2000/svg">
<g id="Mode_Isolation" clip-path="url(#clip0_0_656)">
<path id="Vector" d="M39.6262 56.9092C38.4928 56.1214 37.4072 55.3724 36.3305 54.6093C36.1165 54.4574 35.8743 54.286 35.7576 54.0652C35.0221 52.6644 33.818 52.4701 32.4248 52.7033C32.2603 52.7316 32.0853 52.7068 31.691 52.7068C32.1454 51.9137 32.4018 51.1506 32.9092 50.6401C34.1663 49.3771 35.5525 48.2431 36.8574 47.026C37.0943 46.8052 37.3418 46.4431 37.3436 46.1445C37.3542 43.3748 38.3054 41.013 40.3988 38.8951C41.511 40.5962 42.6072 42.276 43.7423 44.0125C44.2692 43.6556 44.7465 43.3341 45.2929 42.9632C45.7933 43.6539 46.2848 44.3304 46.7463 44.9663C47.3067 43.9612 47.8425 43.0021 48.5108 41.8044C49.4178 43.4967 50.1975 44.9504 51.0639 46.5667C51.6085 44.7279 51.9762 42.912 54.2323 42.5021C54.4127 43.5267 54.5806 44.4894 54.791 45.687C55.3833 44.7014 55.8589 43.9082 56.377 43.048C57.0842 43.4242 57.749 43.7775 58.4934 44.1732C59.7204 42.3962 60.9333 40.6386 62.2435 38.7379C62.438 39.1106 62.6272 39.3597 62.7067 39.6405C63.3026 41.7567 63.9214 43.8676 64.4342 46.005C64.6003 46.6974 64.8267 47.1549 65.426 47.616C66.7663 48.6511 67.9845 49.847 69.2186 51.0146C69.4979 51.2796 69.6394 51.6894 69.9241 52.1645C69.0312 52.0321 68.3098 51.9296 67.5902 51.8166C67.0863 51.7371 66.7539 51.8907 66.379 52.2935C65.0795 53.6872 63.6916 54.9944 62.3637 56.3634C62.1922 56.54 62.0914 56.8898 62.1215 57.1388C62.2011 57.7783 62.3779 58.4036 62.5069 59.0377C63.1063 61.9983 62.0985 64.4324 59.9874 66.4585C59.434 66.9902 59.2943 67.5131 59.3863 68.2497C59.6939 70.7103 60.1094 73.1392 61.0978 75.4338C61.271 75.8348 61.4797 76.2216 61.6512 76.5714C62.834 76.3417 63.9426 76.0715 65.0671 75.9196C67.6538 75.5698 69.6129 76.6456 70.7533 78.9101C72.6628 82.7044 72.5797 86.6471 71.0804 90.5492C69.9523 93.4867 67.9456 95.7831 65.3818 97.5831C65.0265 97.8322 64.5173 97.9806 64.0805 97.9823C55.447 98.0053 46.8152 98.0017 38.1817 97.9894C37.8422 97.9894 37.4461 97.9523 37.1738 97.7809C29.6312 93.0222 23.137 87.1876 18.4251 79.5195C13.9607 72.2524 13.0094 64.4095 14.7793 56.2203C17.8929 41.8203 26.3974 31.9954 40.5031 27.5546C57.9011 22.0769 81.6288 31.6156 85.9252 55.1657C87.2283 62.3074 86.7544 69.4155 84.4047 76.3364C84.1412 77.1119 83.7823 77.8662 83.3809 78.5798C82.3378 80.4346 79.3532 81.0881 77.5692 79.8923C76.7966 79.3729 76.351 78.6116 76.466 77.716C76.6375 76.3841 76.8815 75.0452 77.2651 73.761C77.7779 72.044 78.3773 70.3447 79.0739 68.6948C81.0966 63.9149 80.8685 59.1031 79.3603 54.2772C76.9575 46.5861 71.9308 41.0042 65.0936 36.9767C59.9485 33.9455 54.4321 32.1526 48.3623 32.5024C37.9377 33.103 25.0589 39.2166 21.6819 55.3318C20.6741 60.1453 20.2674 65.003 21.5953 69.8501C22.8895 74.5735 25.3312 78.6558 28.5916 82.2734C28.7861 82.4889 29.1185 82.5772 29.3872 82.7256C29.5074 82.4801 29.64 82.2399 29.7426 81.989C29.7974 81.8565 29.7939 81.6993 29.8292 81.558C30.7663 77.6524 33.4732 75.9478 37.485 76.7515C38.0597 76.8664 38.6502 76.9865 39.1824 77.2179C39.7605 77.4705 40.0222 77.2656 40.2998 76.7851C41.96 73.8988 42.3455 70.7421 42.2518 67.4954C42.2429 67.1987 41.9035 66.8489 41.6312 66.6334C40.024 65.3616 38.9101 63.7947 38.5512 61.7457C38.3019 60.3202 38.7191 59.0077 39.2566 57.72C39.3786 57.4268 39.5166 57.1388 39.6209 56.9074L39.6262 56.9092ZM50.7739 68.4034C54.1793 68.3204 57.2363 67.3894 59.7682 65.0524C61.9712 63.0193 62.1639 60.5304 61.3807 57.8313C61.1685 57.1017 60.6717 56.8739 60.0387 57.2837C59.3527 57.727 58.7038 58.2428 58.0903 58.7834C56.796 59.9245 55.4293 60.979 53.7072 61.3147C49.6583 62.1043 45.8321 61.94 42.8883 58.4566C42.3331 57.7995 41.5834 57.3808 40.6888 57.6917C39.8543 57.9814 39.6828 58.7763 39.5254 59.5359C39.0462 61.8375 39.7959 63.71 41.564 65.1973C44.232 67.4407 47.3916 68.2833 50.7775 68.4016L50.7739 68.4034ZM51.2814 57.3031C51.566 58.0697 51.7552 58.7533 52.0753 59.3716C52.245 59.6984 52.5986 60.0305 52.9416 60.1524C54.5435 60.7176 57.0224 59.2497 57.452 57.5327C57.864 55.8882 56.4972 54.0069 54.5912 53.6589C54.5912 54.1624 54.5435 54.6641 54.6018 55.1516C54.6832 55.8334 54.3914 56.1514 53.7638 56.3492C52.9593 56.6054 52.1813 56.9516 51.2796 57.3031H51.2814ZM47.1865 53.4876C46.5447 53.9663 45.8463 54.3885 45.2717 54.9378C44.3682 55.8034 44.2356 56.8615 44.7554 58.0044C45.3689 59.3539 47.183 60.4421 48.6434 60.2266C49.0837 60.1612 49.6406 59.8821 49.8563 59.527C50.2541 58.8735 50.438 58.0892 50.7209 57.3331C50.4079 57.1936 50.2046 57.0664 49.9836 57.0134C48.2226 56.5948 46.9142 55.8299 47.1847 53.4894L47.1865 53.4876ZM42.6372 92.2132H47.1122V87.2671H42.6372V92.2132ZM60.1695 87.2972H55.6645V92.1866H60.1695V87.2972ZM57.3017 85.6826C57.4361 81.6481 57.5386 77.7443 56.446 76.6809C55.5071 79.1133 55.3161 81.0934 55.5708 84.8242C55.615 85.483 55.8554 85.7197 56.4707 85.6844C56.7306 85.6703 56.9923 85.6826 57.3035 85.6826H57.3017ZM43.3056 76.7127C42.8105 80.0442 42.105 83.2079 43.4912 86.4069C43.9067 85.831 44.4 85.2269 44.4371 84.5963C44.5414 82.8139 44.5061 81.0192 44.4301 79.2316C44.3929 78.3484 44.1401 77.474 43.3056 76.7109V76.7127ZM47.7735 50.5412C45.5227 48.8172 42.982 48.6546 40.1513 48.8136C40.4749 49.2111 40.6623 49.4972 40.9045 49.7251C41.9388 50.7037 43.2454 51.11 44.5715 51.5251C45.8463 51.9243 46.8541 51.6823 47.7735 50.5412ZM54.5453 51.1753C57.4573 51.8978 59.8849 51.0005 62.1905 49.2287C58.9089 48.2148 54.86 49.1757 54.5453 51.1753ZM38.8288 46.27C40.3157 46.1905 41.6312 45.8707 42.6549 44.6872C41.8716 43.5037 41.1202 42.3697 40.3635 41.225C39.2231 42.2372 38.5918 44.3233 38.8288 46.2717V46.27ZM59.6037 86.1384C59.9927 82.8616 60.4436 79.7174 58.8682 76.7038C58.7073 76.9476 58.6101 77.1949 58.6012 77.4458C58.5146 79.7615 58.4722 82.0791 58.3502 84.3931C58.3042 85.2675 58.6454 85.7745 59.6037 86.1384ZM46.573 77.2038C45.7544 77.3398 45.5139 77.7195 45.5245 78.4385C45.5528 80.371 45.5563 82.3087 45.4502 84.2395C45.3972 85.2092 45.841 85.7339 46.5854 86.2302C47.7063 83.1867 46.8453 80.2191 46.573 77.2038ZM48.1766 86.5182C48.2916 86.5517 48.4065 86.5835 48.5214 86.6171C48.7566 85.9617 49.1438 85.3187 49.1968 84.6493C49.3011 83.3032 49.3029 81.9378 49.1915 80.5918C49.0996 79.4913 48.7831 78.412 48.5656 77.3221C48.4684 77.3415 48.3711 77.3592 48.2721 77.3786C47.167 80.4204 47.7293 83.4693 48.1766 86.5164V86.5182ZM56.4371 97.3658H59.2024C59.404 95.7036 59.388 94.1686 57.8251 93.1087C56.1401 94.1333 56.2921 95.716 56.4389 97.3658H56.4371ZM46.1769 97.3658C46.3431 95.716 46.4068 94.1651 44.8208 93.1176C43.0845 94.1297 43.3515 95.7442 43.4222 97.3658H46.1769ZM61.8934 85.7091C61.8934 83.3191 61.9394 80.9751 61.8545 78.6346C61.8368 78.1559 61.3276 77.6948 61.0447 77.2249C60.9687 77.2656 60.8927 77.3062 60.8184 77.3486V85.7091H61.8934ZM41.2988 86.3291C41.4137 86.2956 41.5286 86.262 41.6436 86.2302C42.1333 83.2538 42.5736 80.2791 41.1414 77.126C41.0318 77.5977 40.9434 77.8202 40.9346 78.0428C40.8603 80.3056 40.7631 82.5666 40.7613 84.8294C40.7613 85.3293 41.1114 85.8292 41.2988 86.3291ZM62.2523 41.5536L61.7944 41.4617C61.0942 42.5286 60.3958 43.5973 59.556 44.8762C60.9669 45.3779 62.1038 45.7824 63.2389 46.1852C63.3415 46.1021 63.444 46.0191 63.5483 45.9361C63.1169 44.4753 62.6855 43.0126 62.2541 41.5518L62.2523 41.5536ZM54.5665 86.2744L54.8423 86.1437C54.8264 83.1973 55.0032 80.242 54.3455 77.3044C54.1209 77.6648 53.8893 78.0357 53.8734 78.4155C53.785 80.5741 53.6983 82.7362 53.7372 84.8948C53.7461 85.3594 54.2765 85.8151 54.5665 86.2744ZM42.2359 93.3543C40.6534 94.3841 39.589 95.5959 39.1028 97.3641H42.2359V93.3543ZM50.3797 97.3658C49.752 95.61 48.7654 94.3329 47.1794 93.3719V97.3658H50.3797ZM55.2277 93.3719C53.6435 94.3806 52.6375 95.6294 52.0629 97.3588H55.2277V93.3719ZM60.2296 93.3878V97.3711H63.3574C62.8217 95.6365 61.8015 94.4 60.2296 93.3878ZM49.7078 54.3832C50.2771 54.8707 50.6007 55.3441 50.9932 55.4113C51.2354 55.4519 51.7906 54.899 51.8383 54.5598C51.9338 53.8904 51.3662 53.5583 50.7633 53.5936C50.4822 53.6095 50.2205 53.984 49.7078 54.3832Z" fill="#1E1A1A"/>
<path id="Vector_2" d="M52.1126 16.9207C49.9078 17.2598 47.8868 17.5919 45.8553 17.8533C45.606 17.8851 45.2223 17.6113 45.0508 17.3711C44.0413 15.9615 43.0883 14.5095 42.0805 13.0981C41.8913 12.8331 41.5412 12.683 41.2654 12.4781C41.1823 12.5452 41.0992 12.6141 41.0161 12.6812C41.2972 14.5837 41.5783 16.4879 41.8754 18.4963C39.9322 18.7984 38.0581 19.0881 36.0796 19.3954C35.1637 13.4938 34.2602 7.67516 33.3408 1.74524C34.628 1.53326 35.8603 1.32129 37.0962 1.12875C38.5779 0.897348 40.056 0.589988 41.5483 0.487535C42.7948 0.402746 44.112 0.356819 45.3072 0.65358C49.3367 1.65691 50.7211 7.14523 47.7808 10.2047C47.581 10.4131 47.3016 10.5438 47.0382 10.7258C48.7868 12.8614 50.3975 14.8274 52.1108 16.9189L52.1126 16.9207ZM40.2823 8.23512C41.4351 8.00195 42.6781 8.21922 43.2456 7.04807C43.4383 6.64886 43.3323 5.85749 43.0423 5.52011C42.1529 4.48498 41.0002 5.09793 39.8226 5.20745C39.9764 6.22138 40.1197 7.16112 40.2823 8.23335V8.23512Z" fill="#1E1A1A"/>
<path id="Vector_3" d="M60.2757 17.848C61.9501 16.0745 63.5378 14.3894 65.1291 12.7077C67.6769 10.0157 70.2335 7.33245 72.7672 4.62804C73.1385 4.23236 73.4196 4.10871 73.9589 4.37014C75.4918 5.11558 77.0743 5.75856 78.609 6.4987C78.8671 6.62235 79.1624 7.04982 79.1411 7.31126C78.6549 13.1988 78.128 19.0828 77.6064 24.9685C77.5905 25.1381 77.5463 25.3059 77.4951 25.5903C75.6439 24.7583 73.8493 23.967 72.0794 23.1279C71.9203 23.052 71.8301 22.6439 71.8513 22.4037C72.0281 20.3952 72.0388 20.3952 70.1593 19.5491C69.3035 19.164 68.446 18.7789 67.5089 18.3603C67.0775 18.8814 66.6726 19.4184 66.2112 19.9024C66.0503 20.072 65.6878 20.2522 65.5216 20.1815C63.7959 19.4484 62.0915 18.6677 60.2739 17.8498L60.2757 17.848ZM73.5328 11.4341C73.4585 11.4076 73.3843 11.3829 73.3118 11.3564C72.3941 12.4639 71.4747 13.5733 70.5005 14.7479C71.3616 15.126 72.0759 15.4386 72.868 15.7866C73.1014 14.2569 73.3171 12.8455 73.5328 11.4341Z" fill="#1E1A1A"/>
<path id="Vector_4" d="M101 24.5146C100.109 25.4702 99.3591 26.3905 98.4786 27.1607C98.1356 27.461 97.5044 27.4963 96.9952 27.5281C93.5297 27.7489 90.0625 27.9344 86.3496 28.1464C88.2838 30.1601 90.0961 32.0466 91.8448 33.8678C90.7503 35.0549 89.7018 36.1942 88.5738 37.4166C84.8767 33.587 81.2698 29.8492 77.7107 26.1627C78.6336 25.2035 79.4876 24.2726 80.3964 23.3982C80.5944 23.2074 80.9834 23.165 81.2893 23.1456C84.9298 22.9142 88.5738 22.7004 92.4777 22.4655C90.6902 20.6055 89.0441 18.8885 87.5006 17.2828C88.549 16.1275 89.5639 15.0059 90.6548 13.8029C94.1733 17.4471 97.6175 21.0135 100.998 24.5146H101Z" fill="#1E1A1A"/>
<path id="Vector_5" d="M55.3816 0C57.3637 0.2526 59.2467 0.492835 61.2181 0.745435C60.4684 6.66476 59.7311 12.4922 58.9726 18.4698C57.0206 18.2296 55.1164 17.9947 53.1309 17.7491C53.8876 11.7909 54.6284 5.93875 55.3816 0.00176643V0Z" fill="#1E1A1A"/>
<path id="Vector_6" d="M31.6911 17.1432C32.1614 17.357 32.6353 17.5725 33.1834 17.8215C32.9606 18.4327 32.805 18.9997 32.5539 19.5226C30.9397 22.8894 26.9562 25.1169 23.1848 24.7848C19.6416 24.4739 16.3883 21.5681 15.3027 17.7332C13.3242 10.7381 19.6858 5.47769 25.4073 6.22666C26.4028 6.35737 26.4753 6.54638 26.1711 8.12381C21.1109 7.78642 17.7869 9.79486 16.9948 13.6704C16.2911 17.1114 18.6798 21.259 22.0497 22.4514C25.7981 23.7779 29.2759 21.8773 31.6911 17.1432Z" fill="#1E1A1A"/>
<path id="Vector_7" d="M0 24.3945C2.13231 21.9904 4.19566 19.6622 6.3209 17.2651C6.74878 17.6396 7.13599 17.977 7.6116 18.3921C5.95137 20.2698 4.32296 22.1105 2.60616 24.0518C4.20804 25.4702 5.7834 26.8639 7.43479 28.3265C8.99247 26.5742 10.5272 24.8484 12.1326 23.0449C12.5693 23.4265 12.9724 23.778 13.4215 24.1701C11.8479 25.9507 10.3344 27.6677 8.7414 29.4712C10.7252 31.2306 12.6913 32.974 14.7052 34.7599C14.2578 35.2792 13.8618 35.7385 13.418 36.2543C8.94297 32.2993 4.51745 28.3884 0 24.3945Z" fill="#1E1A1A"/>
</g>
<defs>
<clipPath id="clip0_0_656">
<rect width="101" height="98" fill="white"/>
</clipPath>
</defs>
</svg>
