<svg width="73" height="79" viewBox="0 0 73 79" fill="none" xmlns="http://www.w3.org/2000/svg">
<g clip-path="url(#clip0_0_606)">
<path d="M72.9998 47.1373C72.7855 48.7798 72.6533 50.4385 72.3388 52.063C71.5716 56.008 69.6466 59.4034 67.295 62.6164C63.3029 68.0696 58.3353 72.3354 52.2219 75.2014C45.9483 78.1416 39.3482 79.4332 32.4115 78.8696C28.8741 78.5828 25.4488 77.8388 22.1738 76.4629C18.0695 74.7381 14.7885 72.1168 12.9877 67.9051C11.5695 64.5879 11.6537 61.2185 12.6051 57.815C13.3663 55.0914 14.9888 52.9294 17.092 51.1103C17.5187 50.7413 17.5087 50.5147 17.2362 50.0494C15.145 46.4794 13.823 42.6728 13.823 38.4812C13.823 38.0058 13.9212 37.5325 13.9412 37.0552C13.9472 36.8947 13.9011 36.6561 13.793 36.5899C13.6988 36.5317 13.3963 36.612 13.3403 36.7163C13.0338 37.2818 12.6372 37.8474 12.527 38.4611C12.1865 40.3484 12.6772 42.1815 13.2081 43.9644C13.7589 45.8116 14.488 47.6066 15.139 49.4236C15.2031 49.6061 15.2532 49.7947 15.3373 50.0714H6.56787C6.56787 49.8428 6.56787 49.5801 6.56787 49.3173C6.56787 45.7655 6.56787 42.2136 6.56787 38.6617C6.56787 35.3444 8.6711 33.3128 11.9682 33.5274C13.0438 33.5976 14.1054 33.8723 15.1991 34.0568C15.7359 33.4632 16.2988 32.7492 16.9578 32.1335C18.1276 31.0425 19.6139 30.6293 21.1543 30.5651C22.4843 30.511 23.8223 30.6674 25.1584 30.7416C25.8454 30.7797 26.0698 31.1929 26.0738 31.8387C26.0858 33.6357 26.0998 35.4347 26.1639 37.2317C26.2741 40.3263 28.131 42.4282 31.1796 42.9416C31.8066 43.0479 32.4396 43.1121 33.0745 43.1622C33.5352 43.1983 33.8938 43.3487 33.9399 43.8481C33.9919 44.4077 33.5132 44.3696 33.1827 44.3956C28.7759 44.7526 24.8319 42.719 24.4773 37.3921C24.3732 35.8278 24.3451 34.2554 24.3371 32.685C24.3331 32.1495 24.2069 31.9229 23.6381 31.8848C21.2564 31.7324 19.0691 32.0733 17.3584 33.9726C16.0544 35.4206 15.5837 37.1635 15.6598 39.0167C15.806 42.5986 16.7595 45.962 18.7165 49.0105C19.055 49.538 19.3054 49.6723 19.9504 49.3715C24.8379 47.1012 29.7014 47.023 34.2824 50.0815C37.3972 52.1613 39.0878 55.2799 39.5004 58.9823C39.6967 60.7512 39.4984 62.5622 39.4944 64.3552C39.4944 65.005 39.1338 65.3179 38.5549 65.368C36.7722 65.5225 34.9815 65.7952 33.2047 65.729C31.6363 65.6709 30.0819 65.2176 28.5196 64.9449C28.0809 64.8687 27.8926 64.642 27.9747 64.1908C28.0028 64.0363 28.0268 63.8538 27.9707 63.7174C27.8345 63.3845 27.7283 62.9393 27.4659 62.7869C27.2376 62.6545 26.6767 62.7427 26.5085 62.9413C26.2681 63.2241 26.0498 63.7997 26.184 64.0664C26.4684 64.626 26.9131 65.1755 27.4279 65.5325C29.1245 66.7078 31.1075 66.9364 33.0986 66.9264C41.2551 66.8843 48.378 64.269 54.1449 58.3365C56.0077 56.4211 57.2657 54.1047 58.5476 51.7942C60.4926 48.2865 61.1877 44.4558 61.5302 40.5349C61.7025 38.5654 61.7666 36.5839 61.8507 34.6084C61.8707 34.1571 61.9809 33.9445 62.4716 33.9506C63.4251 33.9586 64.3806 33.9024 65.334 33.9165C65.4903 33.9185 65.7727 34.1331 65.7767 34.2574C65.8809 37.0893 67.0847 39.6324 67.8239 42.2998C69.0557 46.7462 68.9516 51.1565 67.3391 55.5066C67.265 55.7071 67.2129 55.9157 67.1007 56.2928C67.8479 56.0902 68.0702 55.6149 68.1904 55.1396C68.555 53.6835 68.9636 52.2295 69.1779 50.7493C69.8289 46.2709 70.3938 41.7783 71.0067 37.2939C71.0648 36.8687 70.9567 36.3051 71.7359 36.3352C72.5291 36.3653 72.7394 36.4956 72.7795 37.3199C72.8556 38.9084 72.9257 40.4948 72.9978 42.0832V47.1373H72.9998ZM62.4977 49.6824C62.4937 48.9784 62.1131 48.6254 61.376 48.6415C60.763 48.6535 60.3083 49.1148 60.3143 49.7145C60.3203 50.2941 60.8071 50.7774 61.396 50.7894C62.0129 50.8035 62.4997 50.3121 62.4957 49.6824H62.4977ZM63.2729 49.9511C63.2729 50.6972 63.5573 50.99 64.2784 50.982C64.9755 50.976 65.2619 50.6932 65.2699 50.0033C65.2779 49.3414 64.8853 48.8841 64.2924 48.8641C63.7055 48.844 63.2749 49.3033 63.2749 49.9511H63.2729Z" fill="#FFFEFE"/>
<path d="M0 55.8816C0.164252 55.6469 0.360553 55.4263 0.490753 55.1716C1.3681 53.4568 2.22942 51.734 3.17086 49.8708C4.61508 52.0228 5.99119 54.0746 7.46145 56.2647H5.16192C5.62863 57.121 5.93911 57.8431 6.38179 58.4708C7.52154 60.0833 9.01783 61.3428 10.5722 62.5381C10.7865 62.7026 11.0209 63.0355 11.0089 63.2782C10.8406 66.6375 12.1587 69.4333 14.2238 71.9543C14.4762 72.2632 14.7386 72.562 15.0251 72.897C13.8352 73.1457 9.0599 69.4815 6.41184 66.3828C4.25453 63.8578 3.15284 61.3448 2.05916 56.4271H0C0 56.2446 0 56.0621 0 55.8816Z" fill="#FFFEFE"/>
<path d="M53.1416 57.4981C53.1055 57.3778 53.0915 57.3557 53.0935 57.3357C53.2718 55.659 52.4124 54.4637 51.4089 53.2242C46.4974 47.1633 41.6439 41.0543 36.8125 34.9293C36.2917 34.2694 35.829 34.2353 35.0718 34.5462C36.5962 36.5137 38.0925 38.4451 39.6529 40.4587C38.2667 41.6199 36.9027 42.7611 35.6487 43.81C34.4809 42.7109 33.3592 41.6861 32.2796 40.6211C31.7147 40.0636 31.1859 39.4599 30.7051 38.8301C29.4893 37.2317 29.6736 36.0584 31.3101 34.9233C31.8629 34.5402 32.4658 34.2313 33.1108 33.8503C32.3537 33.4552 32.0732 32.8194 31.8629 32.0974C31.7728 31.7865 31.4503 31.5438 31.1659 31.1828C31.7247 30.2903 32.3336 29.3176 32.8705 28.4592C33.5315 28.4592 34.0743 28.5134 34.6031 28.4472C35.7289 28.3088 36.6222 28.7019 37.3053 29.5603C38.0043 30.4388 38.3048 31.4596 37.7279 32.4825C37.3253 33.1984 37.5116 33.6236 37.9803 34.1932C42.7036 39.9091 47.4008 45.6471 52.108 51.3751C52.2422 51.5395 52.4145 51.6739 52.7089 51.9567C52.749 51.4894 52.799 51.2106 52.793 50.9318C52.761 49.7265 52.6969 48.5231 52.6769 47.3178C52.6708 46.9528 52.5807 46.7462 52.2161 46.6058C51.2346 46.2267 50.7579 45.4987 50.83 44.4257C50.8541 44.0627 50.806 43.6937 50.8501 43.3347C50.8721 43.1542 51.0303 42.9897 51.1265 42.8192C51.3188 42.9336 51.5591 43.0098 51.6933 43.1722C51.8456 43.3567 51.8796 43.6375 52.0158 43.8421C52.1 43.9704 52.2702 44.0888 52.4185 44.1108C52.4926 44.1209 52.6208 43.9183 52.6869 43.792C52.761 43.6536 52.757 43.467 52.8491 43.3467C52.9973 43.1542 53.1736 42.9195 53.3839 42.8594C53.4981 42.8273 53.7205 43.104 53.8627 43.2685C53.9929 43.4189 54.081 43.6074 54.2873 43.9424C54.4015 43.5573 54.4215 43.3507 54.5217 43.1983C54.6058 43.0719 54.7821 42.9476 54.9263 42.9356C55.0725 42.9235 55.2608 43.0178 55.373 43.1241C55.5332 43.2765 55.6394 43.4851 55.7676 43.6696C55.9038 43.451 56.04 43.2324 56.2143 42.9536C56.8192 42.6789 56.9795 43.1863 57.0976 43.7619C57.1557 43.7378 57.2158 43.7117 57.2739 43.6877C57.338 43.4971 57.364 43.2805 57.4762 43.1241C57.5624 43.0038 57.7607 42.8854 57.8949 42.8995C58.009 42.9115 58.1913 43.1121 58.1933 43.2304C58.2214 45.4145 58.2594 47.6006 58.2113 49.7846C58.2013 50.2499 57.8848 50.7233 57.6605 51.1665C56.5248 53.4127 55.0785 55.4484 53.3859 57.3076C53.3299 57.3678 53.2537 57.4079 53.1336 57.4981H53.1416Z" fill="#FFFEFE"/>
<path d="M51.2267 37.0292C49.6923 37.0292 48.2221 37.0231 46.7518 37.0292C45.0492 37.0392 43.3466 37.0532 41.644 37.0833C41.1111 37.0933 40.7846 36.9028 40.8507 36.3412C41.4316 31.4657 42.5934 26.7926 46.0267 23.0542C47.517 21.4317 49.3257 20.2063 51.5532 19.753C51.7234 19.7189 51.8997 19.7189 52.2062 19.6929C52.2062 21.7185 52.1942 23.692 52.2122 25.6635C52.2202 26.554 52.094 27.3482 51.6553 28.1865C51.2307 28.9928 51.0624 30.0096 51.0444 30.9402C51.0103 32.7773 51.1566 34.6184 51.2287 36.4576C51.2347 36.5919 51.2287 36.7243 51.2287 37.0312L51.2267 37.0292Z" fill="#FFFEFE"/>
<path d="M40.1418 50.2238H41.2615C41.3276 50.5006 41.3837 50.7453 41.4418 50.99L41.6361 51.006C41.6962 50.7714 41.7563 50.5367 41.8164 50.296C42.7077 50.0694 42.7478 50.1055 42.8099 51.012C42.8219 51.1785 42.9501 51.3349 43.0262 51.4974C43.1164 51.343 43.2486 51.1986 43.2846 51.0321C43.3287 50.8175 43.2946 50.5889 43.2946 50.3843C44.2982 50.1075 44.3402 50.1416 44.4564 51.2246C44.7983 51.3008 45.0487 50.9713 45.2076 50.2359H46.0328C46.0569 50.3743 46.0669 50.5046 46.105 50.627C46.1771 50.8576 46.2652 51.0822 46.3453 51.3089C46.4855 51.1284 46.6899 50.9659 46.756 50.7613C46.8922 50.3281 47.1466 50.2559 47.5291 50.3723C47.5291 51.5616 47.5672 52.7368 47.5031 53.9061C47.4871 54.215 47.2247 54.6101 46.9583 54.7886C46.4014 55.1616 46.5176 55.4925 46.8541 55.9037C47.9077 57.1872 48.9553 58.4728 50.0049 59.7604C50.1031 59.8807 50.1892 60.0111 50.3074 60.1695C48.8051 61.3789 47.2046 62.3536 45.4379 63.0415C45.2657 63.1097 44.9131 63.0235 44.7969 62.8831C43.1424 60.8895 41.4999 58.888 39.8934 56.8563C39.5789 56.4572 39.3766 55.9438 39.2144 55.4544C38.988 54.7685 39.1303 54.1688 39.7772 53.7176C39.9595 53.5912 40.1138 53.2924 40.1218 53.0678C40.1598 52.1392 40.1378 51.2086 40.1378 50.2238H40.1418Z" fill="#FFFEFE"/>
<path d="M14.5604 5.87639C18.178 10.1322 21.7494 14.3299 25.365 18.5838C25.7937 18.0583 26.1622 17.6051 26.5348 17.1518C27.4382 16.0547 28.8764 15.9143 29.9861 16.8129C31.0718 17.6913 31.206 18.9829 30.3286 20.1261C29.305 21.4598 28.2695 22.7855 27.2619 24.1332C26.9775 24.5143 26.7491 24.6286 26.3285 24.3077C25.371 23.5777 24.3855 22.8838 23.406 22.1838C23.0094 21.899 22.9954 21.6403 23.2858 21.2271C24.2593 19.8453 24.2493 19.8252 23.1756 18.5216C20.0869 14.7651 16.9901 11.0147 13.8974 7.26025C13.7992 7.13991 13.7111 7.01156 13.5669 6.81902C13.8834 6.51818 14.1878 6.22737 14.5584 5.87439L14.5604 5.87639Z" fill="#FFFEFE"/>
<path d="M44.4141 23.8625C44.3039 24.0269 44.2178 24.1834 44.1036 24.3157C42.8877 25.7156 42.1025 27.3341 41.6158 29.1151C41.5497 29.3598 41.3173 29.7188 41.139 29.7328C40.8846 29.7529 40.5281 29.5684 40.3578 29.3578C38.483 27.0453 36.6421 24.7068 34.7753 22.3884C34.4888 22.0314 34.5369 21.8308 34.8834 21.5641C36.2696 20.4971 37.6437 19.4161 39.0078 18.321C39.4464 17.968 39.7749 17.948 40.1475 18.4233C41.4355 20.0699 42.7475 21.6984 44.0455 23.335C44.1697 23.4914 44.2758 23.6659 44.4141 23.8645V23.8625Z" fill="#FFFEFE"/>
<path d="M53.0913 26.5339V15.8922C53.1354 15.8722 53.1814 15.8541 53.2255 15.8341C53.8385 16.7526 54.4514 17.6732 55.1485 18.7181C55.5291 17.5007 55.8555 16.4538 56.2341 15.2404C56.7089 16.175 57.1696 16.9512 57.5041 17.7755C57.7985 18.5035 58.2272 18.9347 59.0184 19.025C59.3509 19.0631 59.6694 19.2115 60.0921 19.3378C60.0159 19.759 59.9458 20.1722 59.8657 20.5853C59.5793 22.0815 59.3028 23.5796 58.9864 25.0698C58.9403 25.2884 58.73 25.6133 58.5537 25.6454C56.767 25.9663 54.9722 26.235 53.0913 26.5339Z" fill="#FFFEFE"/>
<path d="M30.8174 13.8205C32.0553 12.2481 33.2472 10.7559 34.4089 9.24173C34.7495 8.7985 35.104 8.77443 35.5247 9.04518C36.9589 9.96575 38.383 10.9004 39.8172 11.8189C40.1798 12.0516 40.2219 12.2942 39.9975 12.6693C39.2343 13.9408 39.2464 13.9408 37.9384 13.2489C37.6159 13.0784 37.2333 12.7274 36.9228 13.1927C36.6083 13.662 36.9428 13.9869 37.3174 14.2637C38.2348 14.9363 38.4331 15.784 37.9123 16.8068C37.4356 17.7374 36.9528 18.664 36.4581 19.5865C36.1636 20.1341 35.8992 20.1842 35.5247 19.7991C35.4465 19.7189 35.3864 19.6186 35.3143 19.5304C33.824 17.6411 32.3358 15.7499 30.8154 13.8225L30.8174 13.8205Z" fill="#FFFEFE"/>
<path d="M58.4779 27.2037C57.9551 29.8652 57.4523 32.4243 56.9476 34.9834C56.9336 35.0496 56.9135 35.1158 56.9015 35.182C56.7079 36.2316 56.0883 36.7557 55.0427 36.7543C53.1718 36.7543 53.1878 36.7523 53.1217 34.8811C53.0456 32.7271 52.9595 30.5711 52.8333 28.4191C52.8032 27.9137 52.9534 27.7573 53.4302 27.671C54.8083 27.4204 56.1564 26.9651 57.5866 27.1275C57.853 27.1576 58.1214 27.1717 58.4779 27.2017V27.2037Z" fill="#FFFEFE"/>
<path d="M38.1708 9.87152C37.678 9.24578 37.2353 8.6802 36.7867 8.11864C36.1938 7.37657 35.4226 7.10582 34.4911 7.24019C33.8421 7.33445 33.1891 7.47886 32.5381 7.47886C31.0939 7.47886 29.9682 6.41389 29.842 5.02001C29.6938 3.37743 30.4489 2.35057 32.0434 2.02968C34.4671 1.54232 36.7246 2.89008 37.3375 5.27873C37.6981 6.68264 37.9124 8.12465 38.1888 9.55062C38.2048 9.62884 38.1808 9.71308 38.1728 9.87152H38.1708Z" fill="#FFFEFE"/>
<path d="M24.854 28.8704C25.2867 28.3028 25.6512 27.7954 26.0458 27.312C26.4585 26.8046 26.821 26.0405 27.3438 25.8981C27.8646 25.7577 28.5557 26.2511 29.1726 26.4657C29.421 26.5519 29.6694 26.6342 29.9799 26.6041C29.3589 25.9282 28.74 25.2503 28.085 24.5363C28.4215 24.2174 28.7139 23.9407 29.0665 23.6077C30.1341 24.767 31.1917 25.8821 32.1993 27.0413C32.3315 27.1937 32.2974 27.6269 32.1792 27.8435C31.5983 28.8965 30.9754 29.9293 30.3324 30.9462C30.2363 31.0986 29.8917 31.257 29.7615 31.1989C28.1551 30.4668 26.5686 29.6927 24.856 28.8744L24.854 28.8704Z" fill="#FFFEFE"/>
<path d="M40.6284 41.5196C41.2733 42.366 41.8943 43.1181 42.4411 43.9223C42.9279 44.6383 42.9479 45.4145 42.4632 46.1626C41.7861 47.2075 40.8327 47.9215 39.7049 48.4008C39.5267 48.477 39.1741 48.4309 39.0539 48.3005C38.1045 47.2677 37.1911 46.2007 36.2056 45.0715C37.6798 43.8862 39.122 42.729 40.6284 41.5176V41.5196Z" fill="#FFFEFE"/>
<path d="M25.9759 25.4569C25.1967 26.546 24.4856 27.5668 23.7405 28.5616C23.6303 28.71 23.3659 28.8022 23.1656 28.8143C21.9618 28.8905 21.0484 28.3871 20.4895 27.3201C19.9607 26.3113 20.0047 25.3025 20.6958 24.3759C21.1525 23.7642 21.6553 23.1886 22.1801 22.5468C23.4801 23.5416 24.6939 24.4722 25.9799 25.4569H25.9759Z" fill="#FFFEFE"/>
<path d="M27.0094 31.3914C28.2873 31.0725 28.5798 31.2851 28.6178 32.4805C28.6719 34.1611 28.732 35.8438 28.7761 37.5245C28.8081 38.6797 29.2668 39.5842 30.2724 40.1879C30.7391 40.4687 31.2218 40.7274 31.6585 41.0483C31.8348 41.1767 32.0511 41.5858 32.011 41.6239C31.7907 41.8405 31.4642 42.1654 31.2318 42.1233C29.7095 41.8526 27.6203 40.7194 27.2257 38.6216C26.769 36.2068 26.8571 33.7941 27.0074 31.3914H27.0094Z" fill="#FFFEFE"/>
<path d="M38.9799 9.60677C38.8477 8.29511 38.7635 7.0316 38.5833 5.78212C38.385 4.39826 37.78 3.24706 36.4941 2.52906C35.9292 2.21418 35.6608 1.69473 35.827 1.03088C35.9813 0.419181 36.5642 0.0180639 37.2672 1.3682e-05C38.3148 -0.0260589 39.0199 0.537511 39.5427 1.36782C40.8688 3.47569 40.5883 7.63327 38.9779 9.60677H38.9799Z" fill="#FFFEFE"/>
<path d="M70.5682 35.7215C70.452 37.2096 70.3719 38.7198 70.2056 40.22C70.0974 41.1847 69.8991 42.1454 69.6628 43.088C69.5746 43.437 69.2602 43.7278 69.0478 44.0446C68.9797 44.0226 68.9136 44.0005 68.8455 43.9785C68.6913 43.3748 68.5411 42.7691 68.3788 42.1674C68.2666 41.7523 68.2025 41.305 68.0002 40.938C67.4834 39.9994 67.5055 39.0909 67.9441 38.1402C68.1324 37.7311 68.2366 37.2818 68.3788 36.8526C68.8255 35.5129 68.9917 35.4206 70.5702 35.7195L70.5682 35.7215Z" fill="#FFFEFE"/>
<path d="M38.5209 49.0265C37.6977 49.6142 36.9646 50.1396 36.2915 50.621C35.0356 49.7084 33.8217 48.824 32.5898 47.9295C33.5213 47.1974 34.5328 46.4012 35.6105 45.5549C36.58 46.7121 37.5194 47.8332 38.5209 49.0265Z" fill="#FFFEFE"/>
<path d="M34.0122 20.9824C33.8539 20.8461 33.7197 20.7638 33.6296 20.6495C32.596 19.3218 31.5784 17.9821 30.5368 16.6604C30.2524 16.3014 30.4006 16.0326 30.6951 15.8822C30.8613 15.796 31.2359 15.8421 31.3501 15.9725C32.4598 17.236 33.5415 18.5256 34.6131 19.8232C34.7233 19.9556 34.8174 20.2604 34.7473 20.3547C34.565 20.5954 34.2846 20.7618 34.0122 20.9844V20.9824Z" fill="#FFFEFE"/>
</g>
<defs>
<clipPath id="clip0_0_606">
<rect width="73" height="79" fill="white"/>
</clipPath>
</defs>
</svg>
