<svg width="73" height="79" viewBox="0 0 73 79" fill="none" xmlns="http://www.w3.org/2000/svg">
<g id="Mode_Isolation" clip-path="url(#clip0_0_636)">
<path id="Vector" d="M73 47.1373C72.7857 48.7798 72.6535 50.4385 72.339 52.063C71.5718 56.008 69.6469 59.4034 67.2953 62.6164C63.3032 68.0696 58.3355 72.3354 52.2222 75.2014C45.9485 78.1416 39.3484 79.4332 32.4118 78.8696C28.8743 78.5828 25.4491 77.8388 22.1741 76.4629C18.0698 74.7381 14.7887 72.1168 12.988 67.9051C11.5698 64.5879 11.6539 61.2185 12.6054 57.815C13.3665 55.0914 14.989 52.9294 17.0923 51.1103C17.5189 50.7413 17.5089 50.5147 17.2365 50.0494C15.1453 46.4794 13.8232 42.6728 13.8232 38.4812C13.8232 38.0058 13.9214 37.5325 13.9414 37.0552C13.9474 36.8947 13.9014 36.6561 13.7932 36.5899C13.6991 36.5317 13.3966 36.612 13.3405 36.7163C13.034 37.2818 12.6374 37.8474 12.5273 38.4611C12.1867 40.3484 12.6775 42.1815 13.2083 43.9644C13.7591 45.8116 14.4883 47.6066 15.1393 49.4236C15.2034 49.6061 15.2534 49.7947 15.3376 50.0714H6.56812C6.56812 49.8428 6.56812 49.5801 6.56812 49.3173C6.56812 45.7655 6.56812 42.2136 6.56812 38.6617C6.56812 35.3444 8.67134 33.3128 11.9684 33.5274C13.0441 33.5976 14.1057 33.8723 15.1994 34.0568C15.7362 33.4632 16.299 32.7492 16.9581 32.1335C18.1279 31.0425 19.6141 30.6293 21.1545 30.5651C22.4845 30.511 23.8226 30.6674 25.1586 30.7416C25.8457 30.7797 26.07 31.1929 26.074 31.8387C26.0861 33.6357 26.1001 35.4347 26.1642 37.2317C26.2743 40.3263 28.1312 42.4282 31.1799 42.9416C31.8068 43.0479 32.4398 43.1121 33.0748 43.1622C33.5355 43.1983 33.894 43.3487 33.9401 43.8481C33.9922 44.4077 33.5135 44.3696 33.1829 44.3956C28.7762 44.7526 24.8321 42.719 24.4776 37.3921C24.3734 35.8278 24.3454 34.2554 24.3374 32.685C24.3334 32.1495 24.2072 31.9229 23.6383 31.8848C21.2567 31.7324 19.0693 32.0733 17.3587 33.9726C16.0547 35.4206 15.5839 37.1635 15.6601 39.0167C15.8063 42.5986 16.7598 45.962 18.7168 49.0105C19.0553 49.538 19.3057 49.6723 19.9506 49.3715C24.8381 47.1012 29.7016 47.023 34.2826 50.0815C37.3974 52.1613 39.088 55.2799 39.5006 58.9823C39.6969 60.7512 39.4986 62.5622 39.4946 64.3552C39.4946 65.005 39.1341 65.3179 38.5552 65.368C36.7725 65.5225 34.9817 65.7952 33.205 65.729C31.6366 65.6709 30.0822 65.2176 28.5198 64.9449C28.0811 64.8687 27.8928 64.642 27.975 64.1908C28.003 64.0363 28.027 63.8538 27.971 63.7174C27.8347 63.3845 27.7286 62.9393 27.4662 62.7869C27.2378 62.6545 26.677 62.7427 26.5087 62.9413C26.2683 63.2241 26.05 63.7997 26.1842 64.0664C26.4686 64.626 26.9133 65.1755 27.4281 65.5325C29.1247 66.7078 31.1078 66.9364 33.0988 66.9264C41.2553 66.8843 48.3783 64.269 54.1451 58.3365C56.008 56.4211 57.2659 54.1047 58.5479 51.7942C60.4929 48.2865 61.1879 44.4558 61.5304 40.5349C61.7027 38.5654 61.7668 36.5839 61.8509 34.6084C61.871 34.1571 61.9811 33.9445 62.4719 33.9506C63.4254 33.9586 64.3808 33.9024 65.3343 33.9165C65.4905 33.9185 65.7729 34.1331 65.777 34.2574C65.8811 37.0893 67.085 39.6324 67.8241 42.2998C69.056 46.7462 68.9518 51.1565 67.3394 55.5066C67.2652 55.7071 67.2132 55.9157 67.101 56.2928C67.8481 56.0902 68.0705 55.6149 68.1907 55.1396C68.5552 53.6835 68.9638 52.2295 69.1782 50.7493C69.8292 46.2709 70.394 41.7783 71.007 37.2939C71.0651 36.8687 70.9569 36.3051 71.7361 36.3352C72.5293 36.3653 72.7396 36.4956 72.7797 37.3199C72.8558 38.9084 72.9259 40.4948 72.998 42.0832V47.1373H73ZM62.4979 49.6824C62.4939 48.9784 62.1133 48.6254 61.3762 48.6415C60.7633 48.6535 60.3086 49.1148 60.3146 49.7145C60.3206 50.2941 60.8073 50.7774 61.3962 50.7894C62.0132 50.8035 62.4999 50.3121 62.4959 49.6824H62.4979ZM63.2731 49.9511C63.2731 50.6972 63.5575 50.99 64.2787 50.982C64.9757 50.976 65.2622 50.6932 65.2702 50.0033C65.2782 49.3414 64.8856 48.8841 64.2927 48.8641C63.7058 48.844 63.2751 49.3033 63.2751 49.9511H63.2731Z" fill="#1E1A1A"/>
<path id="Vector_2" d="M0 55.8816C0.164252 55.6469 0.360553 55.4263 0.490753 55.1716C1.3681 53.4568 2.22942 51.734 3.17086 49.8708C4.61508 52.0228 5.99119 54.0746 7.46145 56.2647H5.16192C5.62863 57.121 5.93911 57.8431 6.38179 58.4708C7.52154 60.0833 9.01783 61.3428 10.5722 62.5381C10.7865 62.7026 11.0209 63.0355 11.0089 63.2782C10.8406 66.6375 12.1587 69.4333 14.2238 71.9543C14.4762 72.2632 14.7386 72.562 15.0251 72.897C13.8352 73.1457 9.0599 69.4815 6.41184 66.3828C4.25453 63.8578 3.15284 61.3448 2.05916 56.4271H0C0 56.2446 0 56.0621 0 55.8816Z" fill="#1E1A1A"/>
<path id="Vector_3" d="M53.1416 57.4981C53.1055 57.3778 53.0915 57.3557 53.0935 57.3357C53.2718 55.659 52.4124 54.4637 51.4089 53.2242C46.4974 47.1633 41.6439 41.0543 36.8125 34.9293C36.2917 34.2694 35.829 34.2353 35.0718 34.5462C36.5962 36.5137 38.0925 38.4451 39.6529 40.4587C38.2667 41.6199 36.9027 42.7611 35.6487 43.81C34.4809 42.7109 33.3592 41.6861 32.2796 40.6211C31.7147 40.0636 31.1859 39.4599 30.7051 38.8301C29.4893 37.2317 29.6736 36.0584 31.3101 34.9233C31.8629 34.5402 32.4658 34.2313 33.1108 33.8503C32.3537 33.4552 32.0732 32.8194 31.8629 32.0974C31.7728 31.7865 31.4503 31.5438 31.1659 31.1828C31.7247 30.2903 32.3336 29.3176 32.8705 28.4592C33.5315 28.4592 34.0743 28.5134 34.6031 28.4472C35.7289 28.3088 36.6222 28.7019 37.3053 29.5603C38.0043 30.4388 38.3048 31.4596 37.7279 32.4825C37.3253 33.1984 37.5116 33.6236 37.9803 34.1932C42.7036 39.9091 47.4008 45.6471 52.108 51.3751C52.2422 51.5395 52.4145 51.6739 52.7089 51.9567C52.749 51.4894 52.799 51.2106 52.793 50.9318C52.761 49.7265 52.6969 48.5231 52.6769 47.3178C52.6708 46.9528 52.5807 46.7462 52.2161 46.6058C51.2346 46.2267 50.7579 45.4987 50.83 44.4257C50.8541 44.0627 50.806 43.6937 50.8501 43.3347C50.8721 43.1542 51.0303 42.9897 51.1265 42.8192C51.3188 42.9336 51.5591 43.0098 51.6933 43.1722C51.8456 43.3567 51.8796 43.6375 52.0158 43.8421C52.1 43.9704 52.2702 44.0888 52.4185 44.1108C52.4926 44.1209 52.6208 43.9183 52.6869 43.792C52.761 43.6536 52.757 43.467 52.8491 43.3467C52.9973 43.1542 53.1736 42.9195 53.3839 42.8594C53.4981 42.8273 53.7205 43.104 53.8627 43.2685C53.9929 43.4189 54.081 43.6074 54.2873 43.9424C54.4015 43.5573 54.4215 43.3507 54.5217 43.1983C54.6058 43.0719 54.7821 42.9476 54.9263 42.9356C55.0725 42.9235 55.2608 43.0178 55.373 43.1241C55.5332 43.2765 55.6394 43.4851 55.7676 43.6696C55.9038 43.451 56.04 43.2324 56.2143 42.9536C56.8192 42.6789 56.9795 43.1863 57.0976 43.7619C57.1557 43.7378 57.2158 43.7117 57.2739 43.6877C57.338 43.4971 57.364 43.2805 57.4762 43.1241C57.5624 43.0038 57.7607 42.8854 57.8949 42.8995C58.009 42.9115 58.1913 43.1121 58.1933 43.2304C58.2214 45.4145 58.2594 47.6006 58.2113 49.7846C58.2013 50.2499 57.8848 50.7233 57.6605 51.1665C56.5248 53.4127 55.0785 55.4484 53.3859 57.3076C53.3299 57.3678 53.2537 57.4079 53.1336 57.4981H53.1416Z" fill="#1E1A1A"/>
<path id="Vector_4" d="M51.2267 37.0292C49.6923 37.0292 48.2221 37.0231 46.7518 37.0292C45.0492 37.0392 43.3466 37.0532 41.644 37.0833C41.1111 37.0933 40.7846 36.9028 40.8507 36.3412C41.4316 31.4657 42.5934 26.7926 46.0267 23.0542C47.517 21.4317 49.3257 20.2063 51.5532 19.753C51.7234 19.7189 51.8997 19.7189 52.2062 19.6929C52.2062 21.7185 52.1942 23.692 52.2122 25.6635C52.2202 26.554 52.094 27.3482 51.6553 28.1865C51.2307 28.9928 51.0624 30.0096 51.0444 30.9402C51.0103 32.7773 51.1566 34.6184 51.2287 36.4576C51.2347 36.5919 51.2287 36.7243 51.2287 37.0312L51.2267 37.0292Z" fill="#1E1A1A"/>
<path id="Vector_5" d="M40.1416 50.2238H41.2613C41.3274 50.5006 41.3835 50.7453 41.4416 50.99L41.6359 51.006C41.6959 50.7714 41.756 50.5367 41.8161 50.296C42.7075 50.0694 42.7476 50.1055 42.8097 51.012C42.8217 51.1785 42.9499 51.3349 43.026 51.4974C43.1161 51.343 43.2483 51.1986 43.2844 51.0321C43.3284 50.8175 43.2944 50.5889 43.2944 50.3843C44.2979 50.1075 44.34 50.1416 44.4562 51.2246C44.798 51.3008 45.0484 50.9713 45.2073 50.2359H46.0326C46.0566 50.3743 46.0667 50.5046 46.1047 50.627C46.1768 50.8576 46.265 51.0822 46.3451 51.3089C46.4853 51.1284 46.6896 50.9659 46.7557 50.7613C46.8919 50.3281 47.1463 50.2559 47.5289 50.3723C47.5289 51.5616 47.567 52.7368 47.5029 53.9061C47.4868 54.215 47.2244 54.6101 46.958 54.7886C46.4012 55.1616 46.5173 55.4925 46.8539 55.9037C47.9075 57.1872 48.9551 58.4728 50.0047 59.7604C50.1028 59.8807 50.189 60.0111 50.3072 60.1695C48.8049 61.3789 47.2044 62.3536 45.4377 63.0415C45.2654 63.1097 44.9129 63.0235 44.7967 62.8831C43.1422 60.8895 41.4996 58.888 39.8932 56.8563C39.5787 56.4572 39.3764 55.9438 39.2141 55.4544C38.9878 54.7685 39.13 54.1688 39.777 53.7176C39.9593 53.5912 40.1135 53.2924 40.1215 53.0678C40.1596 52.1392 40.1376 51.2086 40.1376 50.2238H40.1416Z" fill="#1E1A1A"/>
<path id="Vector_6" d="M14.5604 5.87639C18.178 10.1322 21.7494 14.3299 25.365 18.5838C25.7937 18.0583 26.1622 17.6051 26.5348 17.1518C27.4382 16.0547 28.8764 15.9143 29.9861 16.8129C31.0718 17.6913 31.206 18.9829 30.3286 20.1261C29.305 21.4598 28.2695 22.7855 27.2619 24.1332C26.9775 24.5143 26.7491 24.6286 26.3285 24.3077C25.371 23.5777 24.3855 22.8838 23.406 22.1838C23.0094 21.899 22.9954 21.6403 23.2858 21.2271C24.2593 19.8453 24.2493 19.8252 23.1756 18.5216C20.0869 14.7651 16.9901 11.0147 13.8974 7.26025C13.7992 7.13991 13.7111 7.01156 13.5669 6.81902C13.8834 6.51818 14.1878 6.22737 14.5584 5.87439L14.5604 5.87639Z" fill="#1E1A1A"/>
<path id="Vector_7" d="M44.4141 23.8625C44.3039 24.0269 44.2178 24.1834 44.1036 24.3157C42.8877 25.7156 42.1025 27.3341 41.6158 29.1151C41.5497 29.3598 41.3173 29.7188 41.139 29.7328C40.8846 29.7529 40.5281 29.5684 40.3578 29.3578C38.483 27.0453 36.6421 24.7068 34.7753 22.3884C34.4888 22.0314 34.5369 21.8308 34.8834 21.5641C36.2696 20.4971 37.6437 19.4161 39.0078 18.321C39.4464 17.968 39.7749 17.948 40.1475 18.4233C41.4355 20.0699 42.7475 21.6984 44.0455 23.335C44.1697 23.4914 44.2758 23.6659 44.4141 23.8645V23.8625Z" fill="#1E1A1A"/>
<path id="Vector_8" d="M53.0916 26.5339V15.8922C53.1356 15.8722 53.1817 15.8541 53.2258 15.8341C53.8387 16.7526 54.4516 17.6732 55.1487 18.7181C55.5293 17.5007 55.8558 16.4538 56.2344 15.2404C56.7091 16.175 57.1698 16.9512 57.5043 17.7755C57.7988 18.5035 58.2274 18.9347 59.0187 19.025C59.3512 19.0631 59.6696 19.2115 60.0923 19.3378C60.0162 19.759 59.9461 20.1722 59.8659 20.5853C59.5795 22.0815 59.3031 23.5796 58.9866 25.0698C58.9405 25.2884 58.7302 25.6133 58.5539 25.6454C56.7672 25.9663 54.9724 26.235 53.0916 26.5339Z" fill="#1E1A1A"/>
<path id="Vector_9" d="M30.8172 13.8205C32.0551 12.2481 33.2469 10.7559 34.4087 9.24173C34.7492 8.7985 35.1038 8.77443 35.5244 9.04518C36.9586 9.96575 38.3828 10.9004 39.817 11.8189C40.1796 12.0516 40.2216 12.2942 39.9973 12.6693C39.2341 13.9408 39.2461 13.9408 37.9381 13.2489C37.6156 13.0784 37.233 12.7274 36.9226 13.1927C36.6081 13.662 36.9426 13.9869 37.3172 14.2637C38.2346 14.9363 38.4329 15.784 37.9121 16.8068C37.4353 17.7374 36.9526 18.664 36.4578 19.5865C36.1634 20.1341 35.899 20.1842 35.5244 19.7991C35.4463 19.7189 35.3862 19.6186 35.3141 19.5304C33.8238 17.6411 32.3355 15.7499 30.8152 13.8225L30.8172 13.8205Z" fill="#1E1A1A"/>
<path id="Vector_10" d="M58.4777 27.2037C57.9549 29.8652 57.4521 32.4243 56.9473 34.9834C56.9333 35.0496 56.9133 35.1158 56.9013 35.182C56.7076 36.2316 56.088 36.7557 55.0424 36.7543C53.1715 36.7543 53.1876 36.7523 53.1215 34.8811C53.0453 32.7271 52.9592 30.5711 52.833 28.4191C52.803 27.9137 52.9532 27.7573 53.4299 27.671C54.808 27.4204 56.1561 26.9651 57.5863 27.1275C57.8527 27.1576 58.1211 27.1717 58.4777 27.2017V27.2037Z" fill="#1E1A1A"/>
<path id="Vector_11" d="M38.1705 9.87152C37.6778 9.24578 37.2351 8.6802 36.7864 8.11864C36.1935 7.37657 35.4223 7.10582 34.4909 7.24019C33.8419 7.33445 33.1889 7.47886 32.5379 7.47886C31.0937 7.47886 29.968 6.41389 29.8418 5.02001C29.6935 3.37743 30.4487 2.35057 32.0431 2.02968C34.4669 1.54232 36.7243 2.89008 37.3373 5.27873C37.6978 6.68264 37.9121 8.12465 38.1886 9.55062C38.2046 9.62884 38.1806 9.71308 38.1725 9.87152H38.1705Z" fill="#1E1A1A"/>
<path id="Vector_12" d="M24.8542 28.8704C25.2869 28.3028 25.6515 27.7954 26.0461 27.312C26.4587 26.8046 26.8213 26.0405 27.3441 25.8981C27.8649 25.7577 28.5559 26.2511 29.1729 26.4657C29.4213 26.5519 29.6696 26.6342 29.9801 26.6041C29.3592 25.9282 28.7402 25.2503 28.0852 24.5363C28.4217 24.2174 28.7142 23.9407 29.0667 23.6077C30.1343 24.767 31.192 25.8821 32.1995 27.0413C32.3317 27.1937 32.2977 27.6269 32.1795 27.8435C31.5986 28.8965 30.9756 29.9293 30.3327 30.9462C30.2365 31.0986 29.892 31.257 29.7618 31.1989C28.1553 30.4668 26.5689 29.6927 24.8563 28.8744L24.8542 28.8704Z" fill="#1E1A1A"/>
<path id="Vector_13" d="M40.6284 41.5196C41.2733 42.366 41.8943 43.1181 42.4411 43.9223C42.9279 44.6383 42.9479 45.4145 42.4632 46.1626C41.7861 47.2075 40.8327 47.9215 39.7049 48.4008C39.5267 48.477 39.1741 48.4309 39.0539 48.3005C38.1045 47.2677 37.1911 46.2007 36.2056 45.0715C37.6798 43.8862 39.122 42.729 40.6284 41.5176V41.5196Z" fill="#1E1A1A"/>
<path id="Vector_14" d="M25.9759 25.4569C25.1967 26.546 24.4856 27.5668 23.7405 28.5616C23.6303 28.71 23.3659 28.8022 23.1656 28.8143C21.9618 28.8905 21.0484 28.3871 20.4895 27.3201C19.9607 26.3113 20.0047 25.3025 20.6958 24.3759C21.1525 23.7642 21.6553 23.1886 22.1801 22.5468C23.4801 23.5416 24.6939 24.4722 25.9799 25.4569H25.9759Z" fill="#1E1A1A"/>
<path id="Vector_15" d="M27.0094 31.3914C28.2873 31.0725 28.5798 31.2851 28.6178 32.4805C28.6719 34.1611 28.732 35.8438 28.7761 37.5245C28.8081 38.6797 29.2668 39.5842 30.2724 40.1879C30.7391 40.4687 31.2218 40.7274 31.6585 41.0483C31.8348 41.1767 32.0511 41.5858 32.011 41.6239C31.7907 41.8405 31.4642 42.1654 31.2318 42.1233C29.7095 41.8526 27.6203 40.7194 27.2257 38.6216C26.769 36.2068 26.8571 33.7941 27.0074 31.3914H27.0094Z" fill="#1E1A1A"/>
<path id="Vector_16" d="M38.9799 9.60677C38.8477 8.29511 38.7635 7.0316 38.5833 5.78212C38.385 4.39826 37.78 3.24706 36.4941 2.52906C35.9292 2.21418 35.6608 1.69473 35.827 1.03088C35.9813 0.419181 36.5642 0.0180639 37.2672 1.3682e-05C38.3148 -0.0260589 39.0199 0.537511 39.5427 1.36782C40.8688 3.47569 40.5883 7.63327 38.9779 9.60677H38.9799Z" fill="#1E1A1A"/>
<path id="Vector_17" d="M70.5682 35.7215C70.452 37.2096 70.3719 38.7198 70.2056 40.22C70.0974 41.1847 69.8991 42.1454 69.6628 43.088C69.5746 43.437 69.2602 43.7278 69.0478 44.0446C68.9797 44.0226 68.9136 44.0005 68.8455 43.9785C68.6913 43.3748 68.5411 42.7691 68.3788 42.1674C68.2666 41.7523 68.2025 41.305 68.0002 40.938C67.4834 39.9994 67.5055 39.0909 67.9441 38.1402C68.1324 37.7311 68.2366 37.2818 68.3788 36.8526C68.8255 35.5129 68.9917 35.4206 70.5702 35.7195L70.5682 35.7215Z" fill="#1E1A1A"/>
<path id="Vector_18" d="M38.5212 49.0265C37.6979 49.6142 36.9648 50.1396 36.2918 50.621C35.0358 49.7084 33.822 48.824 32.5901 47.9295C33.5215 47.1974 34.5331 46.4012 35.6107 45.5549C36.5802 46.7121 37.5197 47.8332 38.5212 49.0265Z" fill="#1E1A1A"/>
<path id="Vector_19" d="M34.0122 20.9824C33.8539 20.8461 33.7197 20.7638 33.6296 20.6495C32.596 19.3218 31.5784 17.9821 30.5368 16.6604C30.2524 16.3014 30.4006 16.0326 30.6951 15.8822C30.8613 15.796 31.2359 15.8421 31.3501 15.9725C32.4598 17.236 33.5415 18.5256 34.6131 19.8232C34.7233 19.9556 34.8174 20.2604 34.7473 20.3547C34.565 20.5954 34.2846 20.7618 34.0122 20.9844V20.9824Z" fill="#1E1A1A"/>
</g>
<defs>
<clipPath id="clip0_0_636">
<rect width="73" height="79" fill="white"/>
</clipPath>
</defs>
</svg>
