<svg width="247" height="259" viewBox="0 0 247 259" fill="none" xmlns="http://www.w3.org/2000/svg">
<path d="M88.8654 258.733C86.4665 238.698 73.9503 182.976 83.1288 164.82C86.7794 157.516 101.169 158.401 107.01 152.557C108.679 150.887 110.452 150.053 112.851 149.948C122.447 149.531 132.147 149.114 141.743 148.383C158.952 147.027 175.954 144.522 191.807 137.009C199.109 133.566 205.784 128.974 211.729 123.548C212.042 123.235 212.355 122.818 212.876 122.087C206.618 122.713 200.986 123.653 195.249 123.653C182.733 123.757 170.113 123.653 157.597 123.235C143.933 122.818 130.27 121.253 116.815 124.487C112.121 125.635 107.636 127.409 102.838 128.974C103.047 125.635 103.151 122.192 103.36 118.122C85.8371 127.2 71.965 139.305 62.1607 156.522C60.8048 152.661 59.6575 149.427 58.3015 145.461C42.3434 164.974 91.0557 234.211 88.8654 258.733C-90.2203 192.576 41.1961 26.8175 136.423 0C135.902 1.04348 135.485 1.98262 135.067 2.8174C129.852 13.1479 127.036 24.1044 127.453 35.6871C127.975 50.6089 134.963 62.5046 146.019 72.2089C158.327 83.0611 172.407 90.8873 187.322 97.3568C196.605 101.322 206.097 104.87 215.484 108.522C216.735 109.044 218.196 109.044 219.656 109.253C221.325 109.461 223.098 109.461 224.767 109.983C229.565 111.34 230.712 114.574 227.479 118.331C223.306 123.131 219.134 128.035 214.337 132.313C200.673 144.418 184.298 150.887 166.671 153.914C158.327 155.374 149.774 155.896 141.326 156.94C140.178 157.044 139.031 157.148 137.571 157.357C137.884 158.818 138.092 160.07 138.405 161.218C144.559 183.757 223.938 248.019 246.05 254.071L88.8654 258.733ZM118.796 54.7828C119.005 54.6784 119.214 54.5741 119.422 54.4697C116.502 41.2175 117.753 28.2784 121.613 15.4435C107.115 27.9653 97.1017 43.3045 91.678 61.6698C91.8866 61.8785 91.9909 61.9828 92.1995 62.1915C98.249 57.2871 104.194 52.3828 110.244 47.4784C113.268 49.9828 115.98 52.3828 118.796 54.7828ZM157.597 101.635C147.479 93.2873 136.319 87.9655 124.011 84.4177C127.558 97.9829 142.369 105.705 157.597 101.635Z" fill="black"/>
</svg>
