<svg width="231" height="240" viewBox="0 0 231 240" fill="none" xmlns="http://www.w3.org/2000/svg">
<g clip-path="url(#clip0_0_579)">
<path fill-rule="evenodd" clip-rule="evenodd" d="M54.7353 130.206L69.2702 144.743L54.7353 158.97L40.5108 144.743L54.7353 130.206ZM40.5108 115.98L54.7353 101.443L69.2702 115.98L54.7353 130.206L40.5108 115.98ZM169.153 232.578C162.144 228.042 156.731 222.217 152.918 215.104C149.105 207.99 145.961 200.928 143.487 193.918C141.218 187.32 139.054 180.774 136.993 174.279C134.931 167.784 132.457 162.372 129.571 158.042C127.097 154.124 124.313 151.547 121.221 150.31C119.779 149.691 117.923 149.279 115.655 149.073C113.388 148.866 110.605 149.176 107.307 150V166.083C107.307 173.3 105.915 180.001 103.132 186.187C100.348 192.373 96.6376 197.836 91.9997 202.579C87.3606 207.321 82.0003 211.032 75.9189 213.713C69.8368 216.393 63.3948 217.733 56.591 217.733C45.8711 217.733 36.491 215.672 28.4509 211.548C20.4109 207.424 13.9167 201.547 8.96976 193.919C5.87661 188.971 3.60949 183.507 2.16594 177.527C0.721775 171.547 0 165.258 0 158.66C0 152.062 0.618752 145.361 1.85626 138.557L19.1733 141.958C18.3485 146.701 17.9365 151.648 17.9365 156.803C17.9365 167.525 20.2042 176.598 24.7397 184.02C27.6262 188.762 31.698 192.473 36.9547 195.154C42.2119 197.834 48.7569 199.174 56.591 199.174C60.7144 199.174 64.7341 198.299 68.6514 196.546C72.5688 194.793 76.0219 192.473 79.0108 189.586C81.9997 186.7 84.3711 183.246 86.1237 179.226C87.8763 175.205 88.752 170.824 88.752 166.082V0H107.307V131.134C111.223 130.515 115.244 130.412 119.366 130.825V130.515C123.49 130.721 126.788 130.103 129.262 128.66C131.736 127.217 133.798 124.742 135.447 121.237C136.478 119.176 137.457 116.34 138.385 112.732C139.312 109.124 140.189 105.258 141.014 101.134C141.838 97.0098 142.611 92.8864 143.332 88.7625C144.054 84.6385 144.621 80.8243 145.033 77.3192C145.445 74.4323 146.167 71.0817 147.198 67.2675C148.229 63.4533 149.517 59.5875 151.064 55.6697C152.61 51.7518 154.414 47.9891 156.476 44.3809C158.537 40.7722 160.908 37.7313 163.589 35.2572L176.576 48.5558C173.69 51.4427 171.01 55.9273 168.536 62.0095C166.062 68.0918 164.413 74.1232 163.589 80.1024C163.176 83.196 162.557 86.9581 161.732 91.3918C160.908 95.8242 160.032 100.258 159.104 104.691C158.176 109.124 157.145 113.454 156.012 117.68C154.878 121.907 153.693 125.464 152.456 128.351C151.013 131.443 149.415 134.227 147.663 136.701C145.911 139.176 143.797 141.341 141.324 143.196L145.035 147.836C148.745 153.197 151.683 159.279 153.848 166.083C156.013 172.888 158.435 180.208 161.115 188.042C163.59 194.846 166.218 200.722 169.001 205.671C171.784 210.62 175.237 214.434 179.36 217.115C181.216 218.352 183.484 219.383 186.164 220.208C188.843 221.033 191.936 221.445 195.441 221.445C198.946 221.445 203.069 220.929 207.811 219.898C212.553 218.867 218.015 217.218 224.2 214.95L231.004 232.579C217.397 237.527 205.646 240.001 195.75 240.001C185.854 240.001 176.578 237.527 169.156 232.579L169.153 232.578Z" fill="black"/>
<mask id="mask0_0_579" style="mask-type:luminance" maskUnits="userSpaceOnUse" x="0" y="0" width="232" height="241">
<path d="M54.7353 130.206L69.2702 144.743L54.7353 158.97L40.5108 144.743L54.7353 130.206ZM40.5108 115.98L54.7353 101.443L69.2702 115.98L54.7353 130.206L40.5108 115.98ZM169.153 232.578C162.144 228.042 156.731 222.217 152.918 215.104C149.105 207.99 145.961 200.928 143.487 193.918C141.218 187.32 139.054 180.774 136.993 174.279C134.931 167.784 132.457 162.372 129.571 158.042C127.097 154.124 124.313 151.547 121.221 150.31C119.779 149.691 117.923 149.279 115.655 149.073C113.388 148.866 110.605 149.176 107.307 150V166.083C107.307 173.3 105.915 180.001 103.132 186.187C100.348 192.373 96.6376 197.836 91.9997 202.579C87.3606 207.321 82.0003 211.032 75.9189 213.713C69.8368 216.393 63.3948 217.733 56.591 217.733C45.8711 217.733 36.491 215.672 28.4509 211.548C20.4109 207.424 13.9167 201.547 8.96976 193.919C5.87661 188.971 3.60949 183.507 2.16594 177.527C0.721775 171.547 0 165.258 0 158.66C0 152.062 0.618752 145.361 1.85626 138.557L19.1733 141.958C18.3485 146.701 17.9365 151.648 17.9365 156.803C17.9365 167.525 20.2042 176.598 24.7397 184.02C27.6262 188.762 31.698 192.473 36.9547 195.154C42.2119 197.834 48.7569 199.174 56.591 199.174C60.7144 199.174 64.7341 198.299 68.6514 196.546C72.5688 194.793 76.0219 192.473 79.0108 189.586C81.9997 186.7 84.3711 183.246 86.1237 179.226C87.8763 175.205 88.752 170.824 88.752 166.082V0H107.307V131.134C111.223 130.515 115.244 130.412 119.366 130.825V130.515C123.49 130.721 126.788 130.103 129.262 128.66C131.736 127.217 133.798 124.742 135.447 121.237C136.478 119.176 137.457 116.34 138.385 112.732C139.312 109.124 140.189 105.258 141.014 101.134C141.838 97.0098 142.611 92.8864 143.332 88.7625C144.054 84.6385 144.621 80.8243 145.033 77.3192C145.445 74.4323 146.167 71.0817 147.198 67.2675C148.229 63.4533 149.517 59.5875 151.064 55.6697C152.61 51.7518 154.414 47.9891 156.476 44.3809C158.537 40.7722 160.908 37.7313 163.589 35.2572L176.576 48.5558C173.69 51.4427 171.01 55.9273 168.536 62.0095C166.062 68.0918 164.413 74.1232 163.589 80.1024C163.176 83.196 162.557 86.9581 161.732 91.3918C160.908 95.8242 160.032 100.258 159.104 104.691C158.176 109.124 157.145 113.454 156.012 117.68C154.878 121.907 153.693 125.464 152.456 128.351C151.013 131.443 149.415 134.227 147.663 136.701C145.911 139.176 143.797 141.341 141.324 143.196L145.035 147.836C148.745 153.197 151.683 159.279 153.848 166.083C156.013 172.888 158.435 180.208 161.115 188.042C163.59 194.846 166.218 200.722 169.001 205.671C171.784 210.62 175.237 214.434 179.36 217.115C181.216 218.352 183.484 219.383 186.164 220.208C188.843 221.033 191.936 221.445 195.441 221.445C198.946 221.445 203.069 220.929 207.811 219.898C212.553 218.867 218.015 217.218 224.2 214.95L231.004 232.579C217.397 237.527 205.646 240.001 195.75 240.001C185.854 240.001 176.578 237.527 169.156 232.579L169.153 232.578Z" fill="white"/>
</mask>
<g mask="url(#mask0_0_579)">
<path d="M231 0H0V240H231V0Z" fill="black"/>
</g>
</g>
<defs>
<clipPath id="clip0_0_579">
<rect width="231" height="240" fill="white"/>
</clipPath>
</defs>
</svg>
