<svg width="206" height="261" viewBox="0 0 206 261" fill="none" xmlns="http://www.w3.org/2000/svg">
<g clip-path="url(#clip0_0_574)">
<path d="M34.9765 260.911C28.4318 260.925 22.59 259.485 17.3001 256.434C6.09643 249.962 0.134607 240.449 0.0934672 228.07C-0.0333801 191.5 0.172318 154.926 0.000902934 118.353C-0.0985179 96.6773 8.01285 78.3339 24.1053 62.9901C35.4427 52.1815 48.9365 44.4376 63.5685 38.2603C75.0431 33.4164 87.2238 30.6809 99.2538 27.5099C126.701 20.2734 154.175 13.1328 181.639 5.95449C188.839 4.0725 196.042 2.19394 203.245 0.318807C203.735 0.19197 204.239 0.109697 204.753 0C206.755 19.7695 194.046 36.6765 175.311 41.6266C146.846 49.1477 118.284 56.3671 89.8945 64.1282C73.3872 68.6395 58.4295 76.0783 46.7321 88.3129C39.0664 96.3277 34.9388 105.738 34.9525 116.707C35.0108 163.891 34.9765 211.074 34.9765 258.258V260.911Z" fill="black"/>
<path d="M70.4553 261.003V241.23C70.4553 218.513 70.4793 195.792 70.4107 173.074C70.4039 171.295 70.9524 170.685 72.8002 170.28C96.2601 165.149 119.706 159.959 143.132 154.697C152.748 152.537 158.936 146.469 163.229 138.42C167.452 130.505 169.146 121.945 170.363 113.269C170.527 112.097 170.617 110.914 170.726 109.735C170.737 109.621 170.665 109.498 170.565 109.148C137.294 117.897 104.029 126.642 70.541 135.448C70.2187 130.838 70.8598 126.539 72.2346 122.381C77.5107 106.444 88.8961 96.499 105.931 92.0494C135.504 84.326 165.049 76.5135 194.608 68.7422C197.519 67.9777 200.433 67.2236 203.552 66.4111C203.864 69.1227 204.265 71.6389 204.43 74.1653C205.04 83.5581 206.11 92.9612 206.014 102.351C205.849 118.476 203.12 134.266 196.223 149.198C190.004 162.66 180.785 173.691 166.955 180.976C160.099 184.586 152.604 186.358 145.052 188.017C132.521 190.773 120.001 193.577 107.46 196.292C105.853 196.642 105.187 197.187 105.256 198.846C105.451 203.519 105.523 208.198 105.489 212.874C105.445 218.921 105.465 224.982 105.081 231.015C104.09 246.506 90.1406 259.605 73.6539 260.757C72.6837 260.825 71.71 260.907 70.445 261.003H70.4553Z" fill="black"/>
</g>
<defs>
<clipPath id="clip0_0_574">
<rect width="206" height="261" fill="white"/>
</clipPath>
</defs>
</svg>
