<svg width="241" height="242" viewBox="0 0 241 242" fill="none" xmlns="http://www.w3.org/2000/svg">
<path d="M139.474 38.7626C135.943 42.2613 132.413 45.7623 128.884 49.2852C127.882 50.1412 127.167 51.2854 126.593 52.4275C126.019 53.7125 125.018 56.4257 125.018 56.4257C124.444 60.2831 124.874 64.2836 126.306 67.9958C127.88 71.5671 130.314 74.8524 133.465 77.1387C135.897 79.1389 138.905 80.281 142.2 80.567C145.349 80.8531 148.5 80.1379 151.365 78.5668C156.376 75.8536 160.96 72.4253 164.824 68.2818C168.977 64.2836 173.272 60.1423 177.425 56.1396C188.307 45.1417 208.927 42.8554 223.818 52.9974C238.71 63.1393 242.863 76.7096 240.286 93.563C237.995 105.848 233.555 117.559 227.113 128.13C226.683 128.845 224.82 131.987 224.679 132.274C216.66 144.7 207.21 156.272 196.47 166.555C181.578 180.697 165.541 193.552 148.644 205.12C140.624 210.978 132.32 216.547 124.3 222.262C114.134 228.689 104.11 235.26 93.3697 240.829C92.37 241.401 91.3659 242.402 89.5056 241.828C91.7984 240.257 93.9435 238.829 96.0929 237.544C123.587 219.832 149.074 199.262 172.272 176.265C186.592 162.125 198.906 146.128 208.788 128.557C209.646 126.986 210.364 125.415 211.079 123.701C215.373 115.702 218.094 107.131 219.526 98.2741C220.669 91.9874 220.243 85.5621 218.094 79.4184C217.092 75.847 214.799 72.8478 211.794 70.8498C208.786 68.8473 205.061 67.8483 201.483 68.1344C197.33 68.7065 193.32 70.4207 190.171 73.2769C185.877 77.1321 181.724 81.2756 177.857 85.5621C172.272 92.2735 164.826 97.1321 156.376 99.8453C146.781 102.272 136.614 101.559 127.593 97.702C126.163 97.1299 125.733 97.2729 125.446 98.701C124.728 101.414 123.87 103.984 123.012 106.7C121.149 111.699 118.715 116.553 115.709 121.126C111.269 126.695 106.401 131.983 101.248 136.694C98.3836 139.407 95.2322 141.837 91.7962 143.837C84.6815 147.448 78.2685 144.537 76.7767 137.517C76.6178 136.765 77.3394 132.344 77.9397 131.024C78.4759 129.844 79.0961 128.704 79.789 127.615C81.0027 125.712 82.446 123.96 84.0636 122.411C88.0711 118.411 91.7962 114.126 95.2322 109.699C96.8079 107.842 98.0967 105.699 99.0986 103.555C102.678 97.9859 104.538 91.4131 104.538 84.7017C104.538 77.9903 102.532 71.5605 98.8117 65.9889C93.6566 58.5624 86.4955 52.7047 78.1913 49.1356C73.1796 46.9923 67.7376 45.8503 62.2978 45.8503C56.8581 45.8503 51.4139 46.9923 46.4044 49.1356C41.3928 51.2788 36.8092 54.4189 33.0885 58.4215C29.3635 62.4198 26.3578 66.9901 24.4974 72.1348C20.6311 82.1337 20.7724 93.2747 25.0712 103.131C26.9316 107.56 29.6525 111.701 33.0907 114.987C50.4164 132.7 68.6005 149.268 86.6433 166.266C88.3624 167.837 105.117 189.835 107.407 193.836C110.556 199.691 117.002 210.975 114.996 212.546C114.423 212.976 113.708 213.119 112.99 213.119C112.273 213.119 111.702 212.69 111.271 212.263C100.676 203.835 90.0793 195.409 79.7691 186.836C58.4337 169.411 38.2436 150.841 19.0555 131.129C6.59582 118.131 -0.276173 100.706 0.00850533 82.7103C0.151948 77.7086 1.0104 72.8544 2.29917 67.9958C7.31304 54.2825 16.4757 42.5694 28.505 34.2868C36.3811 28.2862 45.6872 24.431 55.4258 23.1459C65.1645 21.8608 75.1878 23.1459 84.3527 26.7172C91.9419 29.4304 99.1008 33.2878 105.545 38.1443C106.977 39.2863 107.694 39.2863 109.126 38.0012C120.867 26.2881 132.609 14.5751 144.351 3.00503C145.497 1.86299 146.929 1.00481 148.648 0.434886C150.224 0.00579533 151.943 -0.137235 153.66 0.148826C155.379 0.434886 156.811 1.14784 158.1 2.29208C159.389 3.29109 160.39 4.71919 161.108 6.29032C162.251 8.5766 162.538 11.292 162.107 13.8621C161.534 16.4323 160.104 18.7185 158.1 20.2919C151.892 26.4818 145.686 32.6167 139.479 38.7648" fill="black"/>
</svg>
